<svg width="22" height="30" viewBox="0 0 22 30" fill="none" xmlns="http://www.w3.org/2000/svg"><path d="M0 15.1562V14.1797C0 9.38802 1.0026 5.82682 3.00781 3.49609C5.01302 1.16536 7.63021 0 10.8594 0C14.0885 0 16.7057 1.16536 18.7109 3.49609C20.7292 5.82682 21.7383 9.38802 21.7383 14.1797V15.1562C21.7383 20.0521 20.7292 23.6589 18.7109 25.9766C16.7057 28.2943 14.0885 29.4531 10.8594 29.4531C7.64323 29.4531 5.02604 28.2943 3.00781 25.9766C1.0026 23.6589 0 20.0521 0 15.1562ZM1.21094 15.293C1.21094 19.7591 2.08984 23.0469 3.84766 25.1562C5.61849 27.2656 7.94922 28.3203 10.8398 28.3203C13.7695 28.3203 16.1133 27.2656 17.8711 25.1562C19.6289 23.0469 20.5078 19.7526 20.5078 15.2734V14.043C20.5078 9.66797 19.6224 6.42578 17.8516 4.31641C16.0938 2.19401 13.763 1.13281 10.8594 1.13281C7.95573 1.13281 5.61849 2.19401 3.84766 4.31641C2.08984 6.42578 1.21094 9.66797 1.21094 14.043V15.293Z" fill="white"></path></svg>