<svg width="31" height="29" viewBox="0 0 31 29" fill="none" xmlns="http://www.w3.org/2000/svg"><path d="M6.89453 28.6133L0 0H1.30859L6.99219 24.8633C7.07031 25.2018 7.14844 25.5339 7.22656 25.8594C7.30469 26.1719 7.39583 26.543 7.5 26.9727H7.57812C7.66927 26.543 7.7474 26.1719 7.8125 25.8594C7.89062 25.5339 7.97526 25.2018 8.06641 24.8633L14.5312 0H16.0352L22.5195 24.8438C22.6237 25.1953 22.7083 25.5339 22.7734 25.8594C22.8516 26.1719 22.9427 26.543 23.0469 26.9727H23.1445C23.2357 26.543 23.3138 26.1719 23.3789 25.8594C23.444 25.5339 23.5221 25.1888 23.6133 24.8242L29.2578 0H30.4883L23.5938 28.6328H22.3828L15.8008 3.73047C15.7096 3.37891 15.6055 2.96875 15.4883 2.5C15.3841 2.03125 15.306 1.61458 15.2539 1.25H15.1562C15.0781 1.61458 14.987 2.03125 14.8828 2.5C14.7786 2.95573 14.681 3.36589 14.5898 3.73047L8.10547 28.6133H6.89453Z" fill="white"></path></svg>