<svg width="10" height="15" viewBox="0 0 10 15" fill="none" xmlns="http://www.w3.org/2000/svg"><path d="M0 14.2188V0H4.26758C5.72591 0 6.83268 0.367839 7.58789 1.10352C8.3431 1.83268 8.7207 2.81576 8.7207 4.05273C8.7207 5.29622 8.3431 6.28906 7.58789 7.03125C6.83919 7.77344 5.73242 8.14453 4.26758 8.14453H1.15234V14.2188H0ZM1.15234 7.1582H4.26758C5.49154 7.1582 6.34766 6.86849 6.83594 6.28906C7.33073 5.70964 7.57812 4.96419 7.57812 4.05273C7.57812 3.14779 7.33073 2.41211 6.83594 1.8457C6.34115 1.27279 5.48503 0.986328 4.26758 0.986328H1.15234V7.1582ZM8.03711 14.2188L4.59961 7.64648L5.83008 7.55859L9.38477 14.2188H8.03711Z" fill="white"></path></svg>