<svg width="18" height="29" viewBox="0 0 18 29" fill="none" xmlns="http://www.w3.org/2000/svg"><path d="M0 28.4375V0H7.83203C10.5794 0 12.6562 0.716146 14.0625 2.14844C15.4688 3.56771 16.1719 5.48177 16.1719 7.89062C16.1719 10.3125 15.4818 12.2461 14.1016 13.6914C12.7214 15.1237 10.6315 15.8398 7.83203 15.8398H1.21094V28.4375H0ZM1.21094 14.7461H7.83203C10.3841 14.7461 12.207 14.1146 13.3008 12.8516C14.4076 11.5885 14.9609 9.9349 14.9609 7.89062C14.9609 5.85938 14.401 4.21875 13.2812 2.96875C12.1615 1.71875 10.3451 1.09375 7.83203 1.09375H1.21094V14.7461ZM15.9375 28.4375L9.0625 15.2344H10.4688L17.4219 28.4375H15.9375Z" fill="white"></path></svg>