<svg width="12" height="15" viewBox="0 0 12 15" fill="none" xmlns="http://www.w3.org/2000/svg"><path d="M0 7.72461V7.05078C0 4.7526 0.533854 3.00456 1.60156 1.80664C2.66927 0.602214 4.04948 0 5.74219 0C7.4349 0 8.8151 0.602214 9.88281 1.80664C10.957 3.00456 11.4941 4.7526 11.4941 7.05078V7.72461C11.4941 10.0293 10.957 11.7839 9.88281 12.9883C8.8151 14.1862 7.4349 14.7852 5.74219 14.7852C4.05599 14.7852 2.67578 14.1862 1.60156 12.9883C0.533854 11.7839 0 10.0293 0 7.72461ZM1.15234 7.73438C1.15234 9.71354 1.57227 11.2142 2.41211 12.2363C3.25846 13.252 4.36849 13.7598 5.74219 13.7598C7.1224 13.7598 8.23242 13.252 9.07227 12.2363C9.91862 11.2142 10.3418 9.71354 10.3418 7.73438V7.03125C10.3418 5.0651 9.91862 3.57422 9.07227 2.55859C8.23242 1.53646 7.1224 1.02539 5.74219 1.02539C4.36849 1.02539 3.25846 1.53646 2.41211 2.55859C1.57227 3.57422 1.15234 5.0651 1.15234 7.03125V7.73438Z" fill="white"></path></svg>