<svg width="10" height="15" viewBox="0 0 10 15" fill="none" xmlns="http://www.w3.org/2000/svg"><path d="M0 14.2188V0H3.82812C5.64453 0 7.12565 0.602214 8.27148 1.80664C9.42383 3.01107 10 4.66797 10 6.77734V7.44141C10 9.57031 9.42057 11.2337 8.26172 12.4316C7.10286 13.623 5.625 14.2188 3.82812 14.2188H0ZM1.15234 13.2227H3.82812C5.34505 13.2227 6.55924 12.7246 7.4707 11.7285C8.38867 10.7259 8.84766 9.29688 8.84766 7.44141V6.77734C8.84766 4.94141 8.39518 3.51888 7.49023 2.50977C6.58529 1.50065 5.36458 0.996094 3.82812 0.996094H1.15234V13.2227Z" fill="white"></path></svg>