<svg width="19" height="29" viewBox="0 0 19 29" fill="none" xmlns="http://www.w3.org/2000/svg"><path d="M0 28.4375V0H6.91406C10.5078 0 13.3789 1.23698 15.5273 3.71094C17.6758 6.1849 18.75 9.52474 18.75 13.7305V14.707C18.75 19.0951 17.6302 22.4805 15.3906 24.8633C13.151 27.2461 10.3255 28.4375 6.91406 28.4375H0ZM1.21094 27.3242H6.91406C10.013 27.3242 12.5586 26.237 14.5508 24.0625C16.543 21.875 17.5391 18.7565 17.5391 14.707V13.75C17.5391 9.85677 16.5885 6.77734 14.6875 4.51172C12.7995 2.24609 10.2083 1.11328 6.91406 1.11328H1.21094V27.3242Z" fill="white"></path></svg>