<svg width="17" height="15" viewBox="0 0 17 15" fill="none" xmlns="http://www.w3.org/2000/svg"><path d="M3.47656 14.3164L0 0H1.18164L3.81836 11.6406C3.87044 11.8424 3.91276 12.0247 3.94531 12.1875C3.98438 12.3503 4.02669 12.5391 4.07227 12.7539H4.14062C4.17318 12.5391 4.20573 12.3503 4.23828 12.1875C4.27734 12.0247 4.32292 11.8424 4.375 11.6406L7.4707 0H8.75977L11.8945 11.6406C11.9531 11.8424 11.9987 12.0247 12.0312 12.1875C12.0638 12.3503 12.1029 12.5391 12.1484 12.7539H12.2168C12.2559 12.5391 12.2917 12.3503 12.3242 12.1875C12.3568 12.0247 12.3991 11.8392 12.4512 11.6309L15.0488 0H16.1914L12.7148 14.3164H11.5625L8.36914 2.59766C8.31706 2.38932 8.26497 2.17448 8.21289 1.95312C8.16732 1.73177 8.13151 1.5332 8.10547 1.35742H8.03711C8.00456 1.5332 7.96224 1.73177 7.91016 1.95312C7.86458 2.17448 7.81576 2.38932 7.76367 2.59766L4.61914 14.3164H3.47656Z" fill="white"></path></svg>